<svg xmlns="http://www.w3.org/2000/svg" viewBox="0 0 32 32">
  <rect width="32" height="32" rx="8" fill="#F5A524"/>
  <path d="M16.0 5.2C22.63 5.2 26.5 10.73 26.5 19.29C26.5 23.99 26.5 23.16 25.67 25.92C24.57 26.61 24.57 27.86 22.91 27.86C21.53 27.86 20.84 26.06 19.45 26.06C18.07 26.06 17.66 27.86 16.0 27.86C14.34 27.86 13.93 26.06 12.55 26.06C11.16 26.06 10.47 27.86 9.09 27.86C7.71 27.86 7.43 26.61 6.33 25.92C5.5 23.16 5.5 23.99 5.5 19.29C5.5 10.73 9.37 5.2 16.0 5.2Z" fill="#FFF7EA"/>
  <circle cx="12.96" cy="17.36" r="2.14" fill="#F5A524"/>
  <circle cx="19.04" cy="17.36" r="2.14" fill="#F5A524"/>
</svg>
